# xmcd
#
# Track frame offsets:
#	150
#	10269
#	25468
#	40094
#	55397
#	68000
#	79979
#	95266
#	111449
#	127138
#	139056
#	152386
#	168852
#	180833
#	196006
#	221388
#	240410
#
# Disc length: 3411 seconds
# Revision: 0
# Processed by: cddbd v1.5.2PL0 Copyright (c) Steve Scherf et al.
# Submitted via: dBpowerAMP V12.0
#
DISCID=d70d5111
DTITLE=Various Artist - Kross Kut Records Vol 3
DYEAR=2008
DGENRE=Country
TTITLE0=Charley Boyter and Lindsay Waddington - Didgeri Goor
TTITLE1=Neil Buttsworth - Wondering
TTITLE2=Tarscha - Pickin Up The Pieces
TTITLE3=Ken (Chainsaw) Lindsay - These Old Hands
TTITLE4=Glenn Jones - Black Snow Town
TTITLE5=Alisha Smith - Lorna's Waltz
TTITLE6=Keith Jamieson - Augathella Fella
TTITLE7=Lloyd Back - Still Small Hours
TTITLE8=Terry Gordon - Dance With Me
TTITLE9=Col Edmonds - The Girl in The Jukebox
TTITLE10=Borris Bajric - You'll Hear it on The Radio
TTITLE11=John and Avon Kilcullen - Camooweal
TTITLE12=Daisy May - That's My Deal
TTITLE13=Royce Everingham - Blue Dog Jeans
TTITLE14=Rachel Richards - Last Horse Standing
TTITLE15=Texas Rose - Billy Come Back
TTITLE16=Peter Salata - Freight Liner Blues
EXTD=
EXTT0=
EXTT1=
EXTT2=
EXTT3=
EXTT4=
EXTT5=
EXTT6=
EXTT7=
EXTT8=
EXTT9=
EXTT10=
EXTT11=
EXTT12=
EXTT13=
EXTT14=
EXTT15=
EXTT16=
PLAYORDER=
